<?xml version="1.0" standalone="yes"?>
<svg xmlns="http://www.w3.org/2000/svg" width="388" height="330">
<path style="fill:#fdfefe; stroke:none;" d="M0 0L0 330L388 330L388 0L0 0z"/>
<path style="fill:#17ccd7; stroke:none;" d="M114.004 31.6566C100.759 35.6841 106.889 55.1313 119.996 51.5656C132.441 48.1799 126.889 27.7386 114.004 31.6566z"/>
<path style="fill:#9ca5ae; stroke:none;" d="M111 32L112 33L111 32z"/>
<path style="fill:#17ccd7; stroke:none;" d="M84.0432 34.6967C74.6305 37.2082 78.8106 51.6156 87.9807 48.3812C96.1815 45.4886 92.5129 32.4369 84.0432 34.6967z"/>
<path style="fill:#9ca5ae; stroke:none;" d="M81 35L82 36L81 35M107 36L108 37L107 36M79 37L80 38L79 37M92 38L93 39L92 38M127 40L127 43L128 43L127 40M142 42L143 43L142 42z"/>
<path style="fill:#17ccd7; stroke:none;" d="M143.004 42.6566C130.31 46.5181 136.085 66.078 148.996 62.5656C162.037 59.018 155.915 38.7292 143.004 42.6566z"/>
<path style="fill:#9ca5ae; stroke:none;" d="M140 43L141 44L140 43M151 43L152 44L151 43z"/>
<path style="fill:#17ccd7; stroke:none;" d="M56.0432 45.6165C47.3351 47.6902 50.0989 61.3474 58.9954 59.6381C68.2389 57.8622 65.2579 43.4221 56.0432 45.6165M216 46L216.603 78.7145L233 94.0802L275 129L275 130L233 164.87L216.603 180.17L216 213L229 213C229 206.856 227.325 197.844 229.603 192.09C231.297 187.812 236.635 184.761 240 181.87C248.955 174.174 257.94 166.493 267 158.92C271.785 154.92 281.515 142.876 288 142.877C294.414 142.877 304.309 155.093 309 159.13C317.322 166.293 325.642 173.458 334 180.579C337.724 183.751 343.604 187.273 345.397 192.015C347.618 197.893 346 206.761 346 213L359 213L358.397 180.039L342 164.421L301 130L301 129L330 105L321 91C312.847 96.6758 305.623 103.869 298 110.246C295.421 112.404 291.619 116.929 288 116.998C281.765 117.119 271.551 104.924 267 101C258.393 93.5786 249.72 86.2085 241 78.9198C237.354 75.8722 231.459 72.3819 229.603 67.8302C227.194 61.9188 229 52.3408 229 46L216 46z"/>
<path style="fill:#9ca5ae; stroke:none;" d="M346 46C346 56.6059 347.077 64.9558 341 74C349.554 67.7724 347 56.5058 347 47L359 47L346 46z"/>
<path style="fill:#2481ce; stroke:none;" d="M347 47C347 52.9983 348.496 61.3318 346.397 66.9992C342.704 76.9658 326.529 85.6267 319 93L329 104C337.035 100.275 354.989 87.1896 358.397 78.8302C361.797 70.4886 359 55.9937 359 47L347 47z"/>
<path style="fill:#9ca5ae; stroke:none;" d="M82 48L83 49L82 48M109 49L110 50L109 49M135.333 50.6667L135.667 51.3333L135.333 50.6667M156 50L157 51L156 50M112 51L113 52L112 51M135.333 53.6667L135.667 54.3333L135.333 53.6667M156 54L157 55L156 54M63 57L64 58L63 57M136 57L137 58L136 57M155 57L156 58L155 57z"/>
<path style="fill:#17ccd7; stroke:none;" d="M166.001 60.6682C152.584 64.5002 158.371 84.335 171.995 80.5664C184.367 77.1442 178.245 57.1711 166.001 60.6682z"/>
<path style="fill:#9ca5ae; stroke:none;" d="M163 61L164 62L163 61M173 61L174 62L173 61M99 63L99 64L102 64L99 63z"/>
<path style="fill:#17ccd7; stroke:none;" d="M29.108 64.8619C20.658 68.5635 26.3038 81.737 34.8951 78.2531C43.7219 74.6736 37.8678 61.0246 29.108 64.8619M97.1088 65.0278C88.6362 69.7798 96.93 81.5961 104.772 76.821C112.35 72.2062 104.965 60.6215 97.1088 65.0278z"/>
<path style="fill:#9ca5ae; stroke:none;" d="M158 67L159 68L158 67M70 68L71 69L70 68z"/>
<path style="fill:#17ccd7; stroke:none;" d="M71 68.6536C57.6908 69.5511 58.7511 89.9704 72 89.51C85.5361 89.0397 84.5781 67.7379 71 68.6536z"/>
<path style="fill:#9ca5ae; stroke:none;" d="M73 68L74 69L73 68M76 69L77 70L76 69M229 69L230 70L229 69z"/>
<path style="fill:#17ccd7; stroke:none;" d="M127.055 71.7577C118.645 74.9464 123.62 88.1032 131.956 85.2145C140.799 82.1503 135.789 68.4459 127.055 71.7577z"/>
<path style="fill:#9ca5ae; stroke:none;" d="M132 71L133 72L132 71M81 74L82 75L81 74M158 74L159 75L158 74M178 74L179 75L178 74M235 74L236 75L235 74M236 75L237 76L236 75M338 75L339 76L338 75M122 76L123 77L122 76M159 76L160 77L159 76M337 76L338 77L337 76M336 77L337 78L336 77M82.3333 78.6667L82.6667 79.3333L82.3333 78.6667M335 78L336 79L335 78M241 79L242 80L241 79z"/>
<path style="fill:#17ccd7; stroke:none;" d="M334 79L335 80L334 79z"/>
<path style="fill:#9ca5ae; stroke:none;" d="M122 80L123 81L122 80M217 80L218 81L217 80M242 80L243 81L242 80M136 81L137 82L136 81M167 81L167 82L171 82L167 81M218 81L219 82L218 81M331 81L332 82L331 81M356 81L357 82L356 81M123 82L124 83L123 82M330 82L331 83L330 82M355 82L356 83L355 82M81 83L82 84L81 83M329 83L330 84L329 83M354 83L355 84L354 83M125 84L126 85L125 84M328 84L329 85L328 84M353 84L354 85L353 84M127 85L128 86L127 85M248 85L249 86L248 85z"/>
<path style="fill:#17ccd7; stroke:none;" d="M327 85L328 86L327 85z"/>
<path style="fill:#9ca5ae; stroke:none;" d="M352 85L353 86L352 85M224 86L225 87L224 86M249 86L250 87L249 86z"/>
<path style="fill:#17ccd7; stroke:none;" d="M326 86L327 87L326 86z"/>
<path style="fill:#9ca5ae; stroke:none;" d="M349 87L350 88L349 87z"/>
<path style="fill:#17ccd7; stroke:none;" d="M46.0154 88.7423C33.7038 93.5762 41.5082 113.129 53.9846 107.99C66.7957 102.713 58.5858 83.8067 46.0154 88.7423z"/>
<path style="fill:#9ca5ae; stroke:none;" d="M180 88L181 89L180 88z"/>
<path style="fill:#17ccd7; stroke:none;" d="M181.015 88.6535C168.217 92.7198 175.496 112.804 187.995 108.103C200.486 103.405 193.532 84.6769 181.015 88.6535z"/>
<path style="fill:#9ca5ae; stroke:none;" d="M188 88L189 89L188 88M323 88L324 89L323 88M348 88L349 89L348 88M69 89L70 90L69 89M73 89L74 90L73 89M178 89L179 90L178 89M190 89L191 90L190 89M322 89L323 90L322 89M347 89L348 90L347 89M191 90L192 91L191 90M321 90L322 91L321 90M346 90L347 91L346 90z"/>
<path style="fill:#17ccd7; stroke:none;" d="M15.1088 91.7461C7.51099 94.8946 11.933 107.87 19.9846 105.214C29.6982 102.009 24.339 87.9212 15.1088 91.7461z"/>
<path style="fill:#9ca5ae; stroke:none;" d="M192 91L193 92L192 91M255 91L256 92L255 91z"/>
<path style="fill:#17ccd7; stroke:none;" d="M82.0046 92.7431C68.9323 97.7548 77.2505 117.258 89.9846 112.258C101.998 107.541 94.3599 88.0063 82.0046 92.7431z"/>
<path style="fill:#9ca5ae; stroke:none;" d="M113 92L114 93L113 92z"/>
<path style="fill:#17ccd7; stroke:none;" d="M114.004 92.5764C100.68 96.2675 106.849 116.142 119.996 112.566C132.465 109.173 126.916 88.9992 114.004 92.5764z"/>
<path style="fill:#9ca5ae; stroke:none;" d="M120 92L121 93L120 92M175 92L176 93L175 92M193 92L194 93L193 92M231 92L232 93L231 92M256 92L257 93L256 92M40 93L41 94L40 93M122 93L123 94L122 93M150 93L151 94L150 93z"/>
<path style="fill:#17ccd7; stroke:none;" d="M151.019 93.7855C142.686 96.6149 146.568 110.024 154.981 107.214C163.338 104.422 159.742 90.8238 151.019 93.7855z"/>
<path style="fill:#9ca5ae; stroke:none;" d="M155 93L156 94L155 93z"/>
<path style="fill:#17ccd7; stroke:none;" d="M342 93L343 94L342 93z"/>
<path style="fill:#9ca5ae; stroke:none;" d="M157 94L158 95L157 94M174 94L175 95L174 94M194 94L195 95L194 94M316 94L317 95L316 94M341 94L342 95L341 94M147 95L148 96L147 95M315 95L316 96L315 95M340 95L341 96L340 95M39.3333 96.6667L39.6667 97.3333L39.3333 96.6667M94 96L95 97L94 96M159 96L160 97L159 96M261 96L262 97L261 96M314 96L315 97L314 96M339 96L340 97L339 96M107 97L108 98L107 97M237 97L238 98L237 97M262 97L263 98L262 97M238 98L239 99L238 98z"/>
<path style="fill:#17ccd7; stroke:none;" d="M336 98L337 99L336 98z"/>
<path style="fill:#9ca5ae; stroke:none;" d="M39 99L40 100L39 99M75 99L76 100L75 99M160 99L160 102L161 102L160 99z"/>
<path style="fill:#17ccd7; stroke:none;" d="M335 99L336 100L335 99z"/>
<path style="fill:#9ca5ae; stroke:none;" d="M309 100L310 101L309 100M334 100L335 101L334 100M127 101L127 104L128 104L127 101M194 101L195 102L194 101M308 101L309 102L308 101M333 101L334 102L333 101M96 102L97 103L96 102M268 102L269 103L268 102M307 102L308 103L307 102M332 102L333 103L332 102M244 103L245 104L244 103M269 103L270 104L269 103M159 104L160 105L159 104M245 104L246 105L245 104M106 105L107 106L106 105M158 105L159 106L158 105M176 105L177 106L176 105M157 106L158 107L157 106M302 106L303 107L302 106M327 106L328 107L327 106M44 107L45 108L44 107M55 107L56 108L55 107M150 107L151 108L150 107M155 107L156 108L155 107M274 107L275 108L274 107M301 107L302 108L301 107M326 107L327 108L326 107M181 108L182 109L181 108M187 108L188 109L187 108M275 108L276 109L275 108M300 108L301 109L300 108M325 108L326 109L325 108M251 109L252 110L251 109M78 110L79 111L78 110M81 112L82 113L81 112M295 112L296 113L295 112M281 113L282 114L281 113M294 113L295 114L294 113M319 113L320 114L319 113M282 114L283 115L282 114M318 114L319 115L318 114M258 115L259 116L258 115M42.6667 118.333L43.3333 118.667L42.6667 118.333M71.6667 118.333L72.3333 118.667L71.6667 118.333M100.667 118.333L101.333 118.667L100.667 118.333M129.667 118.333L130.333 118.667L129.667 118.333M189 118L189 119L192 119L189 118M287.667 118.333L288.333 118.667L287.667 118.333M38 119L39 120L38 119z"/>
<path style="fill:#17ccd7; stroke:none;" d="M39.0046 119.742C26.3102 124.661 34.5533 144.117 46.9846 138.99C59.5523 133.807 51.5867 114.867 39.0046 119.742z"/>
<path style="fill:#9ca5ae; stroke:none;" d="M47 119L48 120L47 119z"/>
<path style="fill:#17ccd7; stroke:none;" d="M67.0432 119.858C54.8546 125.09 63.9498 143.996 75.9599 138.771C88.4098 133.355 79.7038 114.424 67.0432 119.858M96.0432 119.858C83.8589 125.088 92.9588 144.03 104.957 138.771C117.316 133.354 108.726 114.414 96.0432 119.858M125.043 119.858C112.844 125.094 122.179 144.55 133.985 138.681C146.133 132.643 137.61 114.464 125.043 119.858M180 130L181 130C182.39 127.684 184.128 127.626 181 127L181 126L185 126L189 120C182.876 118.397 180.276 124.964 180 130z"/>
<path style="fill:#2481ce; stroke:none;" d="M185 126L181 126L181 127L183 128C176.244 132.95 186.339 139.995 191.996 139.117C194.029 138.802 195.969 137.891 197.431 136.431C209.151 124.731 185.361 112.109 185 126z"/>
<path style="fill:#17ccd7; stroke:none;" d="M193 119L194 120L193 119z"/>
<path style="fill:#9ca5ae; stroke:none;" d="M194 119L195 120L194 119M312 119L313 120L312 119M94 120L95 121L94 120M123 120L124 121L123 120M196 120L197 121L196 120M264 120L265 121L264 120M311 120L312 121L311 120M197 121L198 122L197 121M265 121L266 122L265 121z"/>
<path style="fill:#17ccd7; stroke:none;" d="M9.1088 123.029C0.958181 127.554 7.75293 139.837 15.8912 135.528C24.0682 131.198 17.0858 118.599 9.1088 123.029z"/>
<path style="fill:#9ca5ae; stroke:none;" d="M157 122L158 123L157 122z"/>
<path style="fill:#17ccd7; stroke:none;" d="M158.055 122.747C149.705 126.028 154.69 138.442 162.956 135.758C171.797 132.887 166.537 119.414 158.055 122.747z"/>
<path style="fill:#9ca5ae; stroke:none;" d="M198 122L199 123L198 122M165 123L166 124L165 123M166 124L167 125L166 124z"/>
<path style="fill:#17ccd7; stroke:none;" d="M199 124L200 125L199 124z"/>
<path style="fill:#9ca5ae; stroke:none;" d="M305 125L306 126L305 125M167 126L168 127L167 126M200.333 126.667L200.667 127.333L200.333 126.667M271 126L272 127L271 126M304 126L305 127L304 126M32 127L33 128L32 127M53 127L54 128L53 127M153 127L154 128L153 127M82.3333 128.667L82.6667 129.333L82.3333 128.667M111.333 128.667L111.667 129.333L111.333 128.667M140.333 128.667L140.667 129.333L140.333 128.667M179.333 128.667L179.667 129.333L179.333 128.667z"/>
<path style="fill:#17ccd7; stroke:none;" d="M200 130L201 131L200 130z"/>
<path style="fill:#9ca5ae; stroke:none;" d="M153 131L154 132L153 131M200.333 131.667L200.667 132.333L200.333 131.667M90 132L91 133L90 132M119 132L120 133L119 132z"/>
<path style="fill:#17ccd7; stroke:none;" d="M180 132L181 133L180 132z"/>
<path style="fill:#9ca5ae; stroke:none;" d="M271 132L272 133L271 132M304 132L305 133L304 132M110 133L111 134L110 133M139 133L140 134L139 133M154 133L155 134L154 133M180 133L181 134L180 133M305 133L306 134L305 133M62 134L63 135L62 134M91 134L92 135L91 134M120 134L121 135L120 134M155 134L156 135L155 134z"/>
<path style="fill:#17ccd7; stroke:none;" d="M181 134L182 135L181 134z"/>
<path style="fill:#9ca5ae; stroke:none;" d="M199 134L200 135L199 134M8 135L9 136L8 135M16 135L17 136L16 135M156 135L157 136L156 135M164 135L165 136L164 135M181 135L182 136L181 135z"/>
<path style="fill:#17ccd7; stroke:none;" d="M198 135L199 136L198 135z"/>
<path style="fill:#9ca5ae; stroke:none;" d="M137 136L138 137L137 136M159 136L160 137L159 136M161.667 136.333L162.333 136.667L161.667 136.333M182 136L183 137L182 136M78 137L79 138L78 137M107 137L108 138L107 137M136 137L137 138L136 137M183 137L184 138L183 137z"/>
<path style="fill:#17ccd7; stroke:none;" d="M196 137L197 138L196 137z"/>
<path style="fill:#9ca5ae; stroke:none;" d="M66 138L67 139L66 138M95 138L96 139L95 138M124 138L125 139L124 138z"/>
<path style="fill:#17ccd7; stroke:none;" d="M185 138L186 139L185 138z"/>
<path style="fill:#9ca5ae; stroke:none;" d="M195 138L196 139L195 138M264 138L265 139L264 138M311 138L312 139L311 138M74 139L75 140L74 139M103 139L104 140L103 139M132 139L133 140L132 139M187.667 139.333L188.333 139.667L187.667 139.333z"/>
<path style="fill:#17ccd7; stroke:none;" d="M189 139L190 140L189 139z"/>
<path style="fill:#9ca5ae; stroke:none;" d="M191 139L191 140L194 140L191 139M312 139L313 140L312 139M114 143L115 144L114 143z"/>
<path style="fill:#17ccd7; stroke:none;" d="M115.001 143.573C101.404 146.203 105.6 166.035 118.999 163.768C131.831 161.597 127.578 141.141 115.001 143.573z"/>
<path style="fill:#9ca5ae; stroke:none;" d="M119 143L120 144L119 143M258 143L259 144L258 143z"/>
<path style="fill:#17ccd7; stroke:none;" d="M82.0046 144.743C69.0607 149.706 77.286 169.373 89.9599 163.991C101.85 158.941 94.2501 140.048 82.0046 144.743z"/>
<path style="fill:#9ca5ae; stroke:none;" d="M89 144L90 145L89 144M283 144L284 145L283 144M292 144L293 145L292 144M318 144L319 145L318 144M91 145L92 146L91 145M123 145L124 146L123 145M282 145L283 146L282 145M293 145L294 146L293 145M319 145L320 146L319 145M47 146L48 147L47 146z"/>
<path style="fill:#17ccd7; stroke:none;" d="M48.0039 146.549C34.2938 149.509 39.229 169.57 52.9853 166.721C65.7941 164.068 60.7074 143.805 48.0039 146.549z"/>
<path style="fill:#9ca5ae; stroke:none;" d="M124 146L125 147L124 146M94 148L95 149L94 148M126 149L127 150L126 149M151 149L151 150L155 150L151 149M181 149L182 150L181 149z"/>
<path style="fill:#17ccd7; stroke:none;" d="M182 149L183 150L182 149z"/>
<path style="fill:#2481ce; stroke:none;" d="M183.001 149.627C169.99 151.727 173.078 171.709 186 169.756C199.017 167.789 195.937 147.538 183.001 149.627z"/>
<path style="fill:#17ccd7; stroke:none;" d="M186 149L187 150L186 149z"/>
<path style="fill:#9ca5ae; stroke:none;" d="M187 149L188 150L187 149M251 149L252 150L251 149M41 150L42 151L41 150M149 150L150 151L149 150z"/>
<path style="fill:#17ccd7; stroke:none;" d="M155 159L155 158L159 158L159 157L157 156C164.6 154.48 153.298 146.761 148 151C143.815 154.348 146.558 167.579 153 164C155.121 162.822 158.024 159.605 155 159z"/>
<path style="fill:#9ca5ae; stroke:none;" d="M179 150L180 151L179 150M189 150L190 151L189 150M276 150L277 151L276 150M325 150L326 151L325 150M75 151L76 152L75 151M177 151L178 152L177 151M191 151L192 152L191 151M300 151L301 152L300 151M326 151L327 152L326 151M127 152L127 156L128 156L127 152M176 152L177 153L176 152M192 152L193 153L192 152z"/>
<path style="fill:#17ccd7; stroke:none;" d="M16.0193 153.786C7.10045 156.766 11.7756 171.033 20.8912 167.254C28.4823 164.107 24.0626 151.099 16.0193 153.786z"/>
<path style="fill:#9ca5ae; stroke:none;" d="M146 153L147 154L146 153M60 154L61 155L60 154M96 154L97 155L96 154z"/>
<path style="fill:#2481ce; stroke:none;" d="M159 154C157.61 156.316 155.872 156.374 159 157L159 158L155 158L155 159L157 160L153 164C157.686 162.388 161.061 159.116 159 154z"/>
<path style="fill:#17ccd7; stroke:none;" d="M175 154L176 155L175 154M193 154L194 155L193 154z"/>
<path style="fill:#9ca5ae; stroke:none;" d="M39 155L40 156L39 155M160 155L160 159L161 159L160 155M174.333 155.667L174.667 156.333L174.333 155.667M194.333 155.667L194.667 156.333L194.333 155.667M106 156L107 157L106 156M269 156L270 157L269 156M332 156L333 157L332 156M75 157L76 158L75 157M307 157L308 158L307 157M333 157L334 158L333 157M39 158L40 159L39 158M126 158L127 159L126 158M25 159L25 162L26 162L25 159M60 159L61 160L60 159M94 160L95 161L94 160M108 160L109 161L108 160M159 160L160 161L159 160M109 161L110 162L109 161z"/>
<path style="fill:#17ccd7; stroke:none;" d="M158 161L159 162L158 161z"/>
<path style="fill:#9ca5ae; stroke:none;" d="M263 161L264 162L263 161M110 162L111 163L110 162z"/>
<path style="fill:#17ccd7; stroke:none;" d="M157 162L158 163L157 162M174 162L175 163L174 162M194 162L195 163L194 162z"/>
<path style="fill:#9ca5ae; stroke:none;" d="M339 162L340 163L339 162M58 163L59 164L58 163M91 163L92 164L91 163M112 163L113 164L112 163M121 163L122 164L121 163z"/>
<path style="fill:#17ccd7; stroke:none;" d="M155 163L156 164L155 163z"/>
<path style="fill:#9ca5ae; stroke:none;" d="M156 163L157 164L156 163M174 163L175 164L174 163M194 163L195 164L194 163M314 163L315 164L314 163M340 163L341 164L340 163M24 164L25 165L24 164M89 164L90 165L89 164M115 164L115 165L119 165L115 164M175 165L176 166L175 165M193 165L194 166L193 165M45 166L46 167L45 166M176 166L177 167L176 166M192 166L193 167L192 166M48 167L48 168L52 168L48 167M177 167L178 168L177 167M191 167L192 168L191 167M256 167L257 168L256 167z"/>
<path style="fill:#17ccd7; stroke:none;" d="M68.0046 168.743C55.0607 173.706 63.286 193.373 75.9599 187.991C87.8495 182.941 80.2501 164.048 68.0046 168.743z"/>
<path style="fill:#9ca5ae; stroke:none;" d="M75 168L76 169L75 168M178 168L179 169L178 168M190 168L191 169L190 168M346 168L347 169L346 168M77 169L78 170L77 169M180 169L181 170L180 169M188 169L189 170L188 169M321 169L322 170L321 169M347 169L348 170L347 169M80 172L81 173L80 172M128 174L129 175L128 174z"/>
<path style="fill:#17ccd7; stroke:none;" d="M129.004 174.762C120.582 176.04 121.021 189.687 129.907 188.588C138.602 187.513 138.463 173.326 129.004 174.762z"/>
<path style="fill:#9ca5ae; stroke:none;" d="M131 174L132 175L131 174M353 174L354 175L353 174M61 175L62 176L61 175M125 175L126 176L125 175M328 175L329 176L328 175M354 175L355 176L354 175M124 176L125 177L124 176M166 176L166 177L171 177L166 176M82 177L82 180L83 180L82 177M123 177L124 178L123 177M164 177L165 178L164 177z"/>
<path style="fill:#2481ce; stroke:none;" d="M165.005 177.742C152.086 182.737 160.235 201.41 172.957 196.258C184.664 191.516 176.938 173.128 165.005 177.742z"/>
<path style="fill:#9ca5ae; stroke:none;" d="M173 177L174 178L173 177M136 178L137 179L136 178M162 178L163 179L162 178z"/>
<path style="fill:#17ccd7; stroke:none;" d="M174 178L175 179L174 178M161 179L162 180L161 179M29.1088 180.746C21.5177 183.893 25.9374 196.901 33.9807 194.214C42.8996 191.234 38.2244 176.967 29.1088 180.746M98.0548 180.758C89.6661 183.939 94.8103 196.839 102.956 194.062C111.833 191.036 106.718 177.473 98.0548 180.758z"/>
<path style="fill:#9ca5ae; stroke:none;" d="M103 180L104 181L103 180M122 180L123 181L122 180z"/>
<path style="fill:#17ccd7; stroke:none;" d="M160 180L161 181L160 180z"/>
<path style="fill:#9ca5ae; stroke:none;" d="M61 181L62 182L61 181M105 181L106 182L105 181M159 181L160 182L159 181M177 181L178 182L177 181M335 181L336 182L335 181M106 182L107 183L106 182M38 183L39 184L38 183M122 183L123 184L122 183M158 183L159 184L158 183M178 183L179 184L178 183M80 184L81 185L80 184z"/>
<path style="fill:#2481ce; stroke:none;" d="M135 184L133 188L135 184z"/>
<path style="fill:#9ca5ae; stroke:none;" d="M136 184L137 185L136 184z"/>
<path style="fill:#17ccd7; stroke:none;" d="M158 184L159 185L158 184z"/>
<path style="fill:#9ca5ae; stroke:none;" d="M93 185L94 186L93 185M39 186L39 189L40 189L39 186M135 186L136 187L135 186M24 187L25 188L24 187M77 187L78 188L77 187M134 187L135 188L134 187M342 187L343 188L342 187M75 188L76 189L75 188M126 188L127 189L126 188M132 188L133 189L132 188M107 190L108 191L107 190M158 190L159 191L158 190M178.333 190.667L178.667 191.333L178.333 190.667M94 191L95 192L94 191M95 192L96 193L95 192M159 192L160 193L159 192M177 192L178 193L177 192M96 193L97 194L96 193M98 194L99 195L98 194M102 194L103 195L102 194M176 194L177 195L176 194z"/>
<path style="fill:#17ccd7; stroke:none;" d="M142 195L143 196L142 195z"/>
<path style="fill:#2481ce; stroke:none;" d="M143.004 195.657C130.607 199.443 136.819 219.026 148.985 215.131C161.286 211.193 155.778 191.755 143.004 195.657z"/>
<path style="fill:#17ccd7; stroke:none;" d="M149 195L150 196L149 195z"/>
<path style="fill:#9ca5ae; stroke:none;" d="M150 195L151 196L150 195z"/>
<path style="fill:#17ccd7; stroke:none;" d="M140 196L141 197L140 196z"/>
<path style="fill:#9ca5ae; stroke:none;" d="M163 196L164 197L163 196M173 196L174 197L173 196M153 197L154 198L153 197M166 197L166 198L172 198L166 197z"/>
<path style="fill:#17ccd7; stroke:none;" d="M55.1049 199.758C46.926 202.945 51.637 216.097 59.956 213.215C68.7741 210.159 63.7801 196.377 55.1049 199.758z"/>
<path style="fill:#9ca5ae; stroke:none;" d="M60 199L61 200L60 199M136 200L137 201L136 200M155 200L156 201L155 200M63 201L64 202L63 201M51 202L52 203L51 202M156 202L156 208L157 208L156 202M135 203L135 208L136 208L135 203M50 204L51 205L50 204M116 205L117 206L116 205M112 206L113 207L112 206z"/>
<path style="fill:#17ccd7; stroke:none;" d="M106 218C109.393 218 116.674 211.735 113 211L113 210L117 210L117 209L115 208L117 206C109.995 206.78 106.619 211.176 106 218z"/>
<path style="fill:#2481ce; stroke:none;" d="M117 209L117 210L113 210L113 211L115 212L107 218C107.56 219.681 107.828 221.567 109 223C120.24 236.737 136.773 211.591 120 206C117.678 205.226 112.825 208.165 117 209z"/>
<path style="fill:#17ccd7; stroke:none;" d="M120 206L121 207L120 206z"/>
<path style="fill:#9ca5ae; stroke:none;" d="M121 206L122 207L121 206M50 207L51 208L50 207z"/>
<path style="fill:#17ccd7; stroke:none;" d="M122 207L123 208L122 207z"/>
<path style="fill:#9ca5ae; stroke:none;" d="M109 208L110 209L109 208z"/>
<path style="fill:#17ccd7; stroke:none;" d="M123 208L124 209L123 208z"/>
<path style="fill:#9ca5ae; stroke:none;" d="M64 209L65 210L64 209z"/>
<path style="fill:#17ccd7; stroke:none;" d="M124 209L125 210L124 209M136 209L137 210L136 209z"/>
<path style="fill:#9ca5ae; stroke:none;" d="M51 210L52 211L51 210M82 210L83 211L82 210z"/>
<path style="fill:#17ccd7; stroke:none;" d="M83.0548 210.747C74.1324 214.252 80.3557 226.862 88.8912 223.257C96.9556 219.851 90.9906 207.63 83.0548 210.747M125 210L126 211L125 210z"/>
<path style="fill:#9ca5ae; stroke:none;" d="M155 210L156 211L155 210M90 211L91 212L90 211M126 211L127 212L126 211M137 211L138 212L137 211z"/>
<path style="fill:#17ccd7; stroke:none;" d="M154 211L155 212L154 211z"/>
<path style="fill:#9ca5ae; stroke:none;" d="M53 212L54 213L53 212M91 212L92 213L91 212z"/>
<path style="fill:#17ccd7; stroke:none;" d="M126 212L127 213L126 212M138 212L139 213L138 212z"/>
<path style="fill:#9ca5ae; stroke:none;" d="M55 213L56 214L55 213M106 213L107 214L106 213z"/>
<path style="fill:#17ccd7; stroke:none;" d="M139 213L140 214L139 213M152 213L153 214L152 213z"/>
<path style="fill:#9ca5ae; stroke:none;" d="M127 214L127 218L128 218L127 214M140 214L141 215L140 214M151 214L152 215L151 214M78 215L79 216L78 215M142.667 215.333L143.333 215.667L142.667 215.333M148.667 215.333L149.333 215.667L148.667 215.333M106 218L107 219L106 218z"/>
<path style="fill:#17ccd7; stroke:none;" d="M107.333 219.667L107.667 220.333L107.333 219.667z"/>
<path style="fill:#9ca5ae; stroke:none;" d="M126 220L127 221L126 220M107 221L108 222L107 221M80 222L81 223L80 222z"/>
<path style="fill:#17ccd7; stroke:none;" d="M108 222L109 223L108 222z"/>
<path style="fill:#9ca5ae; stroke:none;" d="M125 222L126 223L125 222M89 223L90 224L89 223z"/>
<path style="fill:#17ccd7; stroke:none;" d="M109 223L110 224L109 223z"/>
<path style="fill:#9ca5ae; stroke:none;" d="M124 223L125 224L124 223M84 224L84 225L87 225L84 224z"/>
<path style="fill:#17ccd7; stroke:none;" d="M110 224L111 225L110 224z"/>
<path style="fill:#9ca5ae; stroke:none;" d="M123 224L124 225L123 224M111 225L112 226L111 225z"/>
<path style="fill:#17ccd7; stroke:none;" d="M112 225L113 226L112 225M121 225L122 226L121 225z"/>
<path style="fill:#9ca5ae; stroke:none;" d="M122 225L123 226L122 225M113.667 226.333L114.333 226.667L113.667 226.333z"/>
<path style="fill:#17ccd7; stroke:none;" d="M115 226L116 227L115 226z"/>
<path style="fill:#9ca5ae; stroke:none;" d="M118.667 226.333L119.333 226.667L118.667 226.333M45 254L54 249C50.024 248.354 47.3438 251.016 45 254z"/>
<path style="fill:#2481ce; stroke:none;" d="M62 272L62 282L90 282C90 285.323 90.9814 290.812 88.3966 293.397C86.5257 295.268 83.4182 294.983 81 294.999C74.8866 295.041 59.2321 297.762 54.564 293.397C50.8957 289.966 52 282.491 52 278C52 272.786 50.539 264.56 54.5139 260.434C57.6148 257.215 62.9526 258 67 258L99 258L99 248C85.6851 248 57.5321 242.673 47.2245 252.39C42.5876 256.762 43.0004 263.16 43 269C42.9992 280.687 38.8288 300.779 54 304.467C63.4997 306.776 75.2489 305 85 305C88.3894 305 93.7129 305.954 96.6821 303.972C100.992 301.096 100.992 275.904 96.6821 273.028C89.7106 268.376 70.3303 272 62 272z"/>
<path style="fill:#9ca5ae; stroke:none;" d="M99 248L99 249C102.439 249.548 107.04 252.679 102.677 256.062C92.041 264.309 72.3044 252.228 61.2785 259.179C55.9689 262.526 55.3775 290.302 60.5139 293.972C66.1323 297.987 82.1833 295 89 295C81.5218 291.862 68.6791 297.756 62.3179 292.397C58.6696 289.323 60 282.224 60 278C60 273.361 58.7224 266.297 61.179 262.148C63.5625 258.123 69.0208 259 73 259C81.5151 258.999 96.0252 261.814 103.852 258.397C111.988 254.844 104.521 248.065 99 248z"/>
<path style="fill:#616c76; stroke:none;" d="M99 249L99 258C105.371 255.936 106.87 249.613 99 249z"/>
<path style="fill:#9ca5ae; stroke:none;" d="M44 255L45 256L44 255M43 256L43 259L44 259L43 256z"/>
<path style="fill:#616c76; stroke:none;" d="M60 295C57.1549 286.025 54.4595 265.968 62 259C58.503 257.577 54.5452 258.268 52.8935 262.109C49.4068 270.216 49.0176 294.639 60 295z"/>
<path style="fill:#9ca5ae; stroke:none;" d="M42 259L42 295L43 295C43 284.613 46.0114 268.56 42 259M117 262C111.682 280.037 135.525 268.366 143 276L120 276L120 277L144 278C142.119 266.209 126.4 275.707 119.318 270.972C116.356 268.992 117.467 264.969 117 262z"/>
<path style="fill:#2481ce; stroke:none;" d="M139 286L139 277C132.023 277 122.551 275.344 116.001 278.009C107.432 281.496 104.088 292.778 110.279 299.942C119.84 311.007 151.015 307.768 153.674 292C156.712 273.988 151.028 262 132 262C128.53 262 120.461 260.521 118.028 263.603C115.611 266.665 117.423 271.232 121.059 271.852C127.382 272.929 141.454 268.516 143.682 277.019C144.704 280.92 145.43 290.478 142.527 293.566C138.678 297.662 120.857 298.022 117.752 292.775C113.814 286.123 126.882 286.377 130 286.155C132.995 285.942 136 286 139 286z"/>
<path style="fill:#9ca5ae; stroke:none;" d="M143 262L143 263C159.403 264.342 167.125 287.441 155.606 299.671C147.705 308.058 130.38 305 120 305C128.891 308.731 152.256 308.232 158.348 299.956C169.095 285.358 161.549 262.051 143 262M166 262L164 263L164 264L166 262z"/>
<path style="fill:#2481ce; stroke:none;" d="M163 305L173 305C173 297.56 169.808 280.548 174.028 274.322C177.007 269.925 188.467 271.93 190.821 276.109C194.723 283.038 192 297.175 192 305L201 305C201 298.467 197.663 278.25 202.603 273.643C205.478 270.962 212.9 272.615 214.397 276.123C217.581 283.587 215 296.909 215 305L225 305C225 294.529 228.001 278.414 222.442 269.093C218.332 262.203 201.23 257.748 196 265C189.569 261.999 168.903 257.834 164.179 265.344C158.927 273.695 163 295.198 163 305z"/>
<path style="fill:#9ca5ae; stroke:none;" d="M190 262L190 263L197 263L190 262z"/>
<path style="fill:#616c76; stroke:none;" d="M213 262L214 263L213 262z"/>
<path style="fill:#9ca5ae; stroke:none;" d="M214 262L214 263C235.286 264.87 230 288.483 230 304L219 305C221.895 306.215 228.674 307.298 230.972 304.397C233.423 301.302 232 293.731 232 290C232 275.079 232.606 262.051 214 262M234 305L235 305C235 294.537 230.516 270.066 239 263C233.778 262.884 234.008 269.037 234 273L234 305z"/>
<path style="fill:#2481ce; stroke:none;" d="M235 305L245 305C244.354 296.813 241.114 282.953 244.603 275.228C246.807 270.351 259.386 271.001 261.972 275.228C265.989 281.795 263 297.39 263 305L273 305L272 273C291.986 268.643 287 292.089 287 305L296 305C296 295.136 299.616 276.24 293.528 268.028C289.957 263.212 269.716 256.99 268 265C261.443 262.475 240.727 257.543 236.028 265.228C234.11 268.365 235 273.485 235 277L235 305z"/>
<path style="fill:#616c76; stroke:none;" d="M261 262L262 263L261 262z"/>
<path style="fill:#9ca5ae; stroke:none;" d="M262 262L262 263L268 263L262 262M285 262L285 263C306.966 264.797 302 287.838 302 304L291 305L291 306C297.432 306 303.399 306.878 304 299L308 302C303.486 292.285 301.684 282.812 314 278L314 277L304 283C303.991 269.401 299.265 262.009 285 262M313 262C313 264.703 312.231 269.129 314.028 271.397C319.055 277.743 333.634 269.499 340 276L317 276L317 277L340.079 275.737L334.995 272.059L314 272L313 262z"/>
<path style="fill:#2481ce; stroke:none;" d="M314 262L314 272C320.388 272 332.252 269.712 337.852 273.028C343.244 276.221 342.818 292.648 336.941 295.106C333.176 296.682 309.907 297.557 314.752 289.145C317.721 283.99 330.879 286 336 286L336 277C328.487 277 317.877 275.094 311.04 278.688C302.14 283.368 301.427 297.541 310.093 302.91C316.688 306.996 331.559 306.015 339 304.671C352.18 302.29 354.763 275.835 346.772 267.108C339.318 258.969 323.951 262 314 262z"/>
<path style="fill:#616c76; stroke:none;" d="M339 262L340 263L339 262z"/>
<path style="fill:#9ca5ae; stroke:none;" d="M340 262L340 263C356.072 264.412 363.304 288.429 351.867 299.867C343.653 308.081 326.564 305 316 305C324.877 308.725 349.21 308.305 355.297 299.906C365.411 285.95 357.627 262.049 340 262z"/>
<path style="fill:#616c76; stroke:none;" d="M145 263L145 264C158.05 270.933 157.239 294.841 146 303L146 304C166.922 302.868 164.799 265.681 145 263M193 263L193 264L197 264L193 263M216 263L216 264C228.946 271.843 225 291.007 225 304L230 304C230 289.155 235.571 265.933 216 263M264 263L264 264L268 265L264 263M288 263L288 264C299.993 273.357 296 291.274 296 305L302 304C302 288.692 307.253 267.038 288 263M342 263L342 264C352.99 271.812 354.231 294.655 343 303L343 304C362.898 302.195 360.986 265.846 342 263z"/>
<path style="fill:#9ca5ae; stroke:none;" d="M163 265L164 266L163 265M62 271L62 272C72.2705 272 93.0935 268.042 101.852 273.938C107.135 277.495 107.26 299.529 101.852 303.012C91.6955 309.552 67.7881 305 56 305L56 306L92 306L105.411 303.566L109 283L103 271.167L62 271M61 272L61 282L62 282L61 272z"/>
<path style="fill:#616c76; stroke:none;" d="M97 272C100.702 280.737 100.185 294.824 98 304C109.871 303.094 108.159 274.442 97 272M173 305L179 304L180 272C168.339 272.383 173 296.176 173 305z"/>
<path style="fill:#9ca5ae; stroke:none;" d="M182 272L182 273L188 273L182 272z"/>
<path style="fill:#616c76; stroke:none;" d="M201 305L207 304L207 272C196.729 272.8 201 296.993 201 305z"/>
<path style="fill:#9ca5ae; stroke:none;" d="M210.667 272.333L211.333 272.667L210.667 272.333z"/>
<path style="fill:#616c76; stroke:none;" d="M245 304L250 304C250 293.864 247.993 281.456 252 272C239.283 272.308 243.265 294.654 245 304z"/>
<path style="fill:#9ca5ae; stroke:none;" d="M253 272L253 273L260 273L253 272z"/>
<path style="fill:#616c76; stroke:none;" d="M272 273L273 304C283.5 303.163 278.534 279.869 279 272L272 273z"/>
<path style="fill:#9ca5ae; stroke:none;" d="M281.667 272.333L282.333 272.667L281.667 272.333M179 273L179 304L168 305L168 306L179.397 304.397L182 273L179 273M188.667 273.333L189.333 273.667L188.667 273.333M207 273L207 304L196 305L196 306L207.397 304.821L209 296L210 273L207 273M212.667 273.333L213.333 273.667L212.667 273.333M251 273L250 304L239 305L239 306L250.397 304.972L252 296L253 273L251 273M260.667 273.333L261.333 273.667L260.667 273.333M279 273C276.831 285.821 285.668 304.196 267 305L267 306L278.397 304.972L280 296L281 273L279 273M283.667 273.333L284.333 273.667L283.667 273.333M190 274L191 275L190 274M214 274L214 305L215 305L214 274M262 274L262 305L263 305L262 274M285.333 274.667L285.667 275.333L285.333 274.667M191 276L191 305L192 305L191 276M286 276L286 305L287 305L286 276M115.667 277.333L116.333 277.667L115.667 277.333z"/>
<path style="fill:#616c76; stroke:none;" d="M139 277L139 286L144 286L144 278L139 277M340 277L336 278L336 286L341 286L340 277z"/>
<path style="fill:#9ca5ae; stroke:none;" d="M113.667 278.333L114.333 278.667L113.667 278.333M112 279L113 280L112 279M111 280L112 281L111 280M110 281L111 282L110 281M72 282L72 283L89 283L89 294L90 294L90 282L72 282M109 282L110 283L109 282z"/>
<path style="fill:#616c76; stroke:none;" d="M126 296L126 295C123.131 292.316 122.479 290.179 125 287C115.894 283.491 114.207 295.715 126 296z"/>
<path style="fill:#9ca5ae; stroke:none;" d="M123 287C121.364 299.46 142.828 299.505 145 289L144 289C138.67 303.625 116.81 287.999 132.001 287.044C133.654 286.94 135.343 286.973 136.998 287.015C139.429 287.076 141.643 287.439 144 288C140.028 283.454 128.437 286.313 123 287z"/>
<path style="fill:#616c76; stroke:none;" d="M323 296L323 295C319.224 292.785 318.957 290.081 322 287C312.915 283.339 311.15 295.714 323 296z"/>
<path style="fill:#9ca5ae; stroke:none;" d="M341 286L331 286C327.432 286.006 313.889 287.489 320.743 294.142C328.309 301.486 340.967 295.203 341 286z"/>
<path style="fill:#fdfefe; stroke:none;" d="M127.232 287.742C124.194 289.178 124.227 292.684 127.232 294.106C130.588 295.694 137.413 295.677 140.772 294.106C143.332 292.909 144.788 289.154 141.678 287.603C138.59 286.063 130.325 286.28 127.232 287.742M340 287L332 287C330.345 287.001 328.654 286.912 327.005 287.059C324.165 287.311 319.323 289.842 322.623 293.143C328.549 299.071 339.747 294.739 340 287z"/>
<path style="fill:#616c76; stroke:none;" d="M303 289L303 293L304 293L303 289z"/>
<path style="fill:#9ca5ae; stroke:none;" d="M43.3333 295.667L43.6667 296.333L43.3333 295.667M44 298L45 299L44 298M108 298L109 299L108 298M45 299L46 300L45 299M109 299L110 300L109 299M46 300L46 302L48 302L46 300M110 300L111 301L110 300M111 301L112 302L111 301M48 302L49 303L48 302M112 302L113 303L112 302M49.6667 303.333L50.3333 303.667L49.6667 303.333M310 303L311 304L310 303M52.6667 304.333L53.3333 304.667L52.6667 304.333z"/>
<path style="fill:#616c76; stroke:none;" d="M97 304L98 305L97 304z"/>
<path style="fill:#9ca5ae; stroke:none;" d="M116.667 304.333L117.333 304.667L116.667 304.333z"/>
<path style="fill:#616c76; stroke:none;" d="M144 304L145 305L144 304z"/>
<path style="fill:#9ca5ae; stroke:none;" d="M313 304L314 305L313 304z"/>
<path style="fill:#616c76; stroke:none;" d="M340.667 304.333L341.333 304.667L340.667 304.333z"/>
</svg>
